<?xml version="1.0" encoding="UTF-8"?>
<svg xmlns="http://www.w3.org/2000/svg" version="1.1" viewBox="0 0 216.2279 155.7913">
  <defs>
    <style>
      .cls-1 {
        fill: #da2128;
      }
    </style>
  </defs>
  <!-- Generator: Adobe Illustrator 28.7.3, SVG Export Plug-In . SVG Version: 1.2.0 Build 164)  -->
  <g>
    <g id="Layer_1">
      <path class="cls-1" d="M204.7291,16.236s0,117.5326,0,117.5326c-.3408,3.924-3.5624,3.4144-6.4944,3.4274-4.3821.0466-8.8063.1791-13.1814.4347-10.8275.6498-21.6631,2.0366-32.1679,4.7931l-.7388.1989c-9.9406,2.666-19.5893,6.6485-28.2003,12.3245,30.0618-8.637,60.9037-11.3276,92.2815-7.1652V17.4716c-3.9009-.5356-7.6153-.9317-11.4988-1.2356h0Z"/>
      <path class="cls-1" d="M111.5287,27.89v127.9013c1.5375-1.3355,3.1743-2.6241,4.8057-3.8429h.0062l.652-.4783h0c4.9885-3.6267,10.3787-6.7096,15.9939-9.2571,5.6048-2.5515,11.4537-4.5806,17.3971-6.1842,14.5022-3.8923,29.5645-5.311,44.542-5.6127.9316-.0246,2.0423-.0339,2.9741-.0432V0c-30.8197.2908-63.4228,4.7534-86.3709,27.89h0Z"/>
      <path class="cls-1" d="M92.2751,154.9472c-7.7656-5.1232-16.3945-8.8694-25.3009-11.5052-.944-.2717-1.9488-.5745-2.8994-.8192l-.7388-.1989c-.6625-.1751-1.57-.4001-2.2352-.5651l-.7452-.1801c-.3743-.0865-1.1282-.2609-1.5024-.3474l-.7512-.1677c-.3751-.0822-1.1323-.241-1.5089-.3166-1.2136-.2509-2.5727-.518-3.7935-.7328l-.7636-.1365-.7638-.1305c-1.2251-.2132-2.6001-.4244-3.8307-.6023-.6858-.0936-1.624-.2224-2.3097-.3166-.9677-.1245-2.1221-.2661-3.0919-.3726-3.5972-.4079-7.2584-.7041-10.8717-.9249-4.3656-.2557-8.8375-.3889-13.1823-.4347-.7153-.0083-1.6513-.0049-2.3097-.0124-3.2568.4327-4.3947-2.7185-4.1837-3.4503-.0002-2.3037-.0002-117.4975-.0002-117.4975-3.8835.3043-7.5976.7004-11.4924,1.2356v130.3104c31.3739-4.1628,62.217-1.4709,92.2751,7.1652Z"/>
      <path class="cls-1" d="M80.7453,141.1199c8.6527,3.6514,16.8299,8.5273,23.9475,14.6714V27.89C81.7492,4.7556,49.14.2904,18.3282,0v130.3728c21.1587.2352,42.7537,2.4807,62.4171,10.7472Z"/>
    </g>
  </g>
</svg>