<?xml version="1.0" encoding="UTF-8"?>
<svg xmlns="http://www.w3.org/2000/svg" version="1.1" viewBox="0 0 216.2279 155.7913">
  <defs>
    <style>
      .cls-1 {
        fill: #da2128;
      }
    </style>
  </defs>
  <!-- Generator: Adobe Illustrator 28.7.3, SVG Export Plug-In . SVG Version: 1.2.0 Build 164)  -->
  <g>
    <g id="Layer_1">
      <g id="icon">
        <g id="MONITOR">
          <g id="COMPUTER_SCREEN">
            <path class="cls-1" d="M151.3395,113.4725H42.4759v15.225h108.8636v-15.225ZM96.3653,124.0458c-1.6352,0-2.9595-1.3253-2.9595-2.9606s1.3243-2.961,2.9595-2.961,2.9606,1.3253,2.9606,2.961-1.3253,2.9606-2.9606,2.9606Z"/>
            <path class="cls-1" d="M158.3255,43.0615v24.9299c1.2163-.5129,2.5204-.7829,3.8677-.7829h1.942v-24.1471c0-6.6729-5.4997-12.1015-12.2597-12.1015H40.856c-6.7607,0-12.2597,5.4286-12.2597,12.1015v36.0746h1.9009c1.3477,0,2.6664.2433,3.909.7006v-36.7752c0-3.4744,2.8869-6.2918,6.4498-6.2918h111.0195c3.5611,0,6.45,2.8174,6.45,6.2918Z"/>
            <path id="bottom" class="cls-1" d="M118.8791,147.726h-4.2747c-3.8932-.0292-4.5371-.6363-4.8347-1.2039-.7166-1.3637-.7166-4.6877-.7148-9.2883v-.6091c0-1.3221-1.0727-2.3946-2.394-2.3946h-20.5904c-1.3221,0-2.3948,1.0725-2.3948,2.3946v.6091c.0018,4.6006.0026,7.9247-.7148,9.2883-.2976.5676-.9412,1.1747-4.8337,1.2039h-4.2755c-1.3231,0-2.395,1.0725-2.395,2.3946v2.0155c0,1.3225,1.0719,2.3946,2.395,2.3946h45.0272c1.3229,0,2.3946-1.0721,2.3946-2.3946v-2.0155c0-1.3221-1.0717-2.3946-2.3946-2.3946Z"/>
          </g>
        </g>
        <g id="TABLET">
          <path id="tablet" class="cls-1" d="M216.2383,79.2831c0-4.9405-3.4587-8.9456-7.7249-8.9456h-46.3202c-4.2667,0-7.7246,4.0051-7.7246,8.9456v66.7313c0,4.9409,3.4579,8.9456,7.7246,8.9456h46.3202c4.2663,0,7.7249-4.0047,7.7249-8.9456v-66.7313ZM175.7226,151.7175c-1.1801,0-2.1356-1.0553-2.1356-2.357s.9554-2.3574,2.1356-2.3574c1.1789,0,2.1363,1.0553,2.1363,2.3574s-.9574,2.357-2.1363,2.357ZM185.3537,151.7175c-1.1799,0-2.1357-1.0553-2.1357-2.357s.9558-2.3574,2.1357-2.3574,2.1353,1.0553,2.1353,2.3574-.9554,2.357-2.1353,2.357ZM194.9841,151.7175c-1.1791,0-2.1353-1.0553-2.1353-2.357s.9562-2.3574,2.1353-2.3574c1.1799,0,2.136,1.0553,2.136,2.3574s-.956,2.357-2.136,2.357ZM210.3272,143.7456h-49.9474v-56.0631h-.0044v-10.8215h14.3429v.0016h21.1142v-.0016h14.3433v.0004h.1498v2.3984c0,.008.0016.0154.0016.0234v64.4625Z"/>
        </g>
        <g id="SMARTPHPNE">
          <path id="phone" class="cls-1" d="M39.347,92.034c0-2.4173-.7947-4.734-2.2396-6.5203-1.6674-2.0646-4.0786-3.2486-6.6102-3.2486H11.3351c-2.5324,0-4.9425,1.184-6.611,3.2486-1.4439,1.7863-2.2386,4.1029-2.2386,6.5203v53.1564c0,2.4178.7947,4.7336,2.2386,6.5203,1.6684,2.0654,4.0786,3.2493,6.611,3.2493h19.1622c2.5316,0,4.9427-1.1839,6.6107-3.2493,1.4443-1.7867,2.239-4.1025,2.239-6.5203v-53.1564ZM15.5413,85.7622h10.7506c.3133,0,.5686.25.5686.5572,0,.3064-.2552.5556-.5686.5556h-10.7506c-.3142,0-.5694-.2493-.5694-.5556,0-.3072.2552-.5572.5694-.5572ZM20.9158,152.9912c-1.1603,0-2.101-.9407-2.101-2.1014,0-1.1615.9407-2.101,2.101-2.101s2.1018.9394,2.1018,2.101c0,1.1607-.9411,2.1014-2.1018,2.1014ZM35.429,146.82H6.4033v-56.4465h29.0257v56.4465Z"/>
        </g>
      </g>
    </g>
  </g>
</svg>