<?xml version="1.0" encoding="UTF-8"?>
<svg xmlns="http://www.w3.org/2000/svg" version="1.1" viewBox="0 0 1045.207 606.3344">
  <defs>
    <style>
      .cls-1 {
        fill: #da2228;
      }
    </style>
  </defs>
  <!-- Generator: Adobe Illustrator 28.7.3, SVG Export Plug-In . SVG Version: 1.2.0 Build 164)  -->
  <g>
    <g id="RESPONSIVE_DESIGN_BY_RedKoala">
      <g id="icon">
        <g id="MONITOR">
          <g id="COMPUTER_SCREEN">
            <path class="cls-1" d="M727.8652,403.4692H195.5449v74.4473h532.3203v-74.4473ZM459.0527,455.1704c-7.996,0-14.4716-6.4805-14.4716-14.4766s6.4756-14.4785,14.4716-14.4785,14.4766,6.4805,14.4766,14.4785-6.4805,14.4766-14.4766,14.4766Z"/>
            <path class="cls-1" d="M762.0254,59.1738v121.9023c5.9473-2.5078,12.3242-3.8281,18.9121-3.8281h9.4961V59.1738c0-32.6289-26.8926-59.1738-59.9473-59.1738H187.624c-33.0586,0-59.9472,26.5449-59.9472,59.1738v176.3974h9.2949c6.5898,0,13.0381,1.1895,19.1143,3.4258V59.1738c0-16.9893,14.1162-30.7656,31.538-30.7656h542.8623c17.4131,0,31.5391,13.7763,31.5391,30.7656Z"/>
            <path id="bottom" class="cls-1" d="M569.1406,570.9614h-20.9023c-19.0371-.1426-22.1856-3.1113-23.6406-5.8867-3.5039-6.668-3.5039-22.9219-3.4951-45.418v-2.9785c0-6.4649-5.2452-11.709-11.7061-11.709h-100.6826c-6.4649,0-11.71,5.2441-11.71,11.709v2.9785c.0088,22.4961.0127,38.75-3.4951,45.418-1.4551,2.7754-4.6025,5.7441-23.6357,5.8867h-20.9063c-6.4697,0-11.7109,5.2441-11.7109,11.709v9.8554c0,6.4668,5.2412,11.709,11.7109,11.709h220.1738c6.4688,0,11.709-5.2422,11.709-11.709v-9.8554c0-6.4649-5.2402-11.709-11.709-11.709Z"/>
          </g>
        </g>
        <g id="TABLET">
          <path id="tablet" class="cls-1" d="M1045.207,236.29c0-24.1582-16.9121-43.7422-37.7734-43.7422h-226.4961c-20.8633,0-37.7715,19.584-37.7715,43.7422v326.3022c0,24.1602,16.9082,43.7422,37.7715,43.7422h226.4961c20.8613,0,37.7734-19.582,37.7734-43.7422V236.29ZM847.0938,590.479c-5.7705,0-10.4424-5.1602-10.4424-11.5254s4.6719-11.5274,10.4424-11.5274c5.7646,0,10.4463,5.1602,10.4463,11.5274s-4.6817,11.5254-10.4463,11.5254ZM894.1875,590.479c-5.7695,0-10.4433-5.1602-10.4433-11.5254s4.6738-11.5274,10.4433-11.5274,10.4414,5.1602,10.4414,11.5274-4.6719,11.5254-10.4414,11.5254ZM941.2783,590.479c-5.7656,0-10.4414-5.1602-10.4414-11.5254s4.6758-11.5274,10.4414-11.5274c5.7696,0,10.4444,5.1602,10.4444,11.5274s-4.6748,11.5254-10.4444,11.5254ZM1016.3027,551.4985h-244.2324v-274.1372h-.0215v-52.9151h70.1338v.0079h103.2442v-.0079h70.1357v.002h.7324v11.7275c0,.0391.0078.0752.0078.1143v315.2085Z"/>
        </g>
        <g id="SMARTPHPNE">
          <path id="phone" class="cls-1" d="M180.2451,298.6391c0-11.8203-3.8857-23.1484-10.9511-31.8828-8.1534-10.0957-19.9434-15.8852-32.3223-15.8852H43.2725c-12.3828,0-24.168,5.7895-32.3262,15.8852-7.0605,8.7344-10.9463,20.0625-10.9463,31.8828v259.9238c0,11.8223,3.8858,23.1465,10.9463,31.8829,8.1582,10.0996,19.9434,15.8886,32.3262,15.8886h93.6992c12.3789,0,24.1689-5.789,32.3252-15.8886,7.0625-8.7364,10.9482-20.0606,10.9482-31.8829v-259.9238ZM63.8399,267.9712h52.5683c1.5322,0,2.7803,1.2226,2.7803,2.7246,0,1.498-1.2481,2.7168-2.7803,2.7168h-52.5683c-1.5362,0-2.7842-1.2188-2.7842-2.7168,0-1.502,1.248-2.7246,2.7842-2.7246ZM90.1201,596.7075c-5.6738,0-10.2734-4.5996-10.2734-10.2754,0-5.6797,4.5996-10.2734,10.2734-10.2734s10.2774,4.5937,10.2774,10.2734c0,5.6758-4.6016,10.2754-10.2774,10.2754ZM161.0869,566.5317H19.1572v-276.0117h141.9297v276.0117Z"/>
        </g>
      </g>
    </g>
  </g>
</svg>